<?xml version="1.0" standalone="no"?><!DOCTYPE svg PUBLIC "-//W3C//DTD SVG 1.1//EN" "http://www.w3.org/Graphics/SVG/1.1/DTD/svg11.dtd"><svg t="1745722078786" class="icon" viewBox="0 0 1115 1024" version="1.1" xmlns="http://www.w3.org/2000/svg" p-id="9164" xmlns:xlink="http://www.w3.org/1999/xlink" width="217.7734375" height="200"><path d="M380.219409 884.658228c-70.21097 0-108.016878-63.729958-119.898734-103.696203-4.320675-16.202532 4.320675-35.64557 22.683544-38.886076 16.202532-4.320675 35.64557 4.320675 38.886076 22.683545 0 0 18.362869 58.329114 58.329114 58.329114 27.004219 0 38.886076-35.64557 41.046414-41.046414 4.320675-18.362869 47.527426-194.43038 78.85232-327.291139h-95.054852c-16.202532 0-31.324895-14.042194-31.324894-31.324895 0-16.202532 14.042194-31.324895 31.324894-31.324894h111.257384c10.801688-41.046414 18.362869-72.371308 20.523207-83.172996l2.160337-8.64135C553.046414 248.438819 584.371308 141.50211 669.704641 141.50211c74.531646 0 99.375527 72.371308 101.535865 111.257384 2.160338 16.202532-11.881857 33.485232-29.164557 35.645569-16.202532 2.160338-33.485232-11.881857-35.645569-29.164557 0-2.160338-4.320675-54.008439-38.886076-54.008438-35.64557 0-58.329114 78.852321-68.050633 111.257383v8.641351c-2.160338 8.64135-8.64135 31.324895-16.202532 63.729957h78.852321c18.362869 0 31.324895 14.042194 31.324894 31.324895 0 18.362869-14.042194 31.324895-31.324894 31.324895h-92.894515c-29.164557 113.417722-56.168776 230.075949-85.333333 343.49367-10.801688 35.64557-44.28692 89.654008-103.696203 89.654009z m470.953587-83.172996c-14.042194 0-24.843882-6.481013-35.64557-18.362869l-54.008439-70.210971-54.008438 70.210971c-8.64135 10.801688-18.362869 18.362869-33.485233 18.362869-20.523207 0-35.64557-14.042194-35.645569-33.485232 0-10.801688 4.320675-18.362869 10.801688-24.843882l68.050633-81.012658-61.569621-70.210971c-8.64135-10.801688-11.881857-18.362869-11.881856-29.164557 0-20.523207 16.202532-35.64557 35.645569-35.645569 14.042194 0 24.843882 6.481013 35.64557 18.362869l49.687764 63.729958 49.687763-63.729958c8.64135-10.801688 18.362869-18.362869 33.485232-18.362869 20.523207 0 35.64557 14.042194 35.64557 33.485232 0 10.801688-4.320675 18.362869-10.801688 24.843882l-63.729957 74.531645 65.890295 76.691983c8.64135 10.801688 11.881857 18.362869 11.881856 29.164557 0 23.763713-17.2827 35.64557-35.645569 35.64557z m0 0" fill="#333333" p-id="9165"></path><path d="M978.632911 1012.118143H143.662447c-54.008439 0-97.21519-43.206751-97.21519-97.215189v-799.324895c0-54.008439 43.206751-97.21519 97.21519-97.21519h834.970464c54.008439 0 97.21519 43.206751 97.21519 97.21519v799.324895c0 54.008439-43.206751 97.21519-97.21519 97.215189z m-834.970464-928.945147c-18.362869 0-32.405063 14.042194-32.405063 32.405063v799.324895c0 18.362869 14.042194 32.405063 32.405063 32.405063h834.970464c18.362869 0 32.405063-14.042194 32.405064-32.405063v-799.324895c0-18.362869-14.042194-32.405063-32.405064-32.405063H143.662447z" fill="#333333" p-id="9166"></path></svg>