<?xml version="1.0" standalone="no"?><!DOCTYPE svg PUBLIC "-//W3C//DTD SVG 1.1//EN" "http://www.w3.org/Graphics/SVG/1.1/DTD/svg11.dtd"><svg t="1747018976513" class="icon" viewBox="0 0 1024 1024" version="1.1" xmlns="http://www.w3.org/2000/svg" p-id="31264" xmlns:xlink="http://www.w3.org/1999/xlink" width="200" height="200"><path d="M930.909091 1024H93.090909c-51.2 0-93.090909-41.890909-93.090909-93.090909V93.090909C0 41.890909 41.890909 0 93.090909 0h837.818182c51.2 0 93.090909 41.890909 93.090909 93.090909v837.818182c0 51.2-41.890909 93.090909-93.090909 93.090909zM93.090909 93.090909v837.818182h837.818182V93.090909H93.090909z" fill="#2c2c2c" p-id="31265"></path><path d="M716.706909 243.153455l65.163636 65.163636c9.309091 9.309091 9.309091 27.927273 0 41.890909l-37.236363 37.236364-107.054546-107.054546 37.236364-37.236363c13.963636-13.963636 32.581818-13.963636 41.890909 0zM232.634182 685.335273l381.672727-381.672728 107.054546 107.054546-381.672728 381.672727h-107.054545v-107.054545z" fill="#2c2c2c" p-id="31266"></path></svg>