<?xml version="1.0" standalone="no"?><!DOCTYPE svg PUBLIC "-//W3C//DTD SVG 1.1//EN" "http://www.w3.org/Graphics/SVG/1.1/DTD/svg11.dtd"><svg t="1747018327309" class="icon" viewBox="0 0 1024 1024" version="1.1" xmlns="http://www.w3.org/2000/svg" p-id="6298" xmlns:xlink="http://www.w3.org/1999/xlink" width="200" height="200"><path d="M965.632 558.08h-349.184c-32.768 0-58.368 25.088-58.368 58.368v349.184c0 32.768 25.088 58.368 58.368 58.368h349.184c32.768 0 58.368-25.088 58.368-58.368v-349.184c0-33.28-25.088-58.368-58.368-58.368z m-30.208 171.52l-153.6 166.4c-8.704 8.704-16.896 12.8-21.504 12.8-8.704 0-16.896-4.096-21.504-8.704l-89.6-72.704c-12.8-12.8-16.896-34.304-4.096-47.104s34.304-16.896 47.104-4.096l64 51.2 132.096-144.896c12.8-12.8 34.304-12.8 47.104 0s12.8 34.304 0 47.104zM407.552 558.08H58.368C25.088 558.08 0 583.168 0 616.448v349.184C0 998.4 25.088 1024 58.368 1024h349.184c32.768 0 58.368-25.088 58.368-58.368v-349.184c0-33.28-25.088-58.368-58.368-58.368zM399.36 936.96c0 11.264-9.216 20.48-20.48 20.48H87.04c-11.264 0-20.48-9.216-20.48-20.48v-291.84c0-11.264 9.216-20.48 20.48-20.48h291.84c11.264 0 20.48 9.216 20.48 20.48v291.84zM965.632 1.536h-349.184C583.68 1.536 558.08 26.624 558.08 59.904V409.6c0 32.768 25.088 58.368 58.368 58.368h349.184c32.768 0 58.368-25.088 58.368-58.368V59.904C1024 27.136 998.912 1.536 965.632 1.536z m-30.208 172.032l-153.6 166.4c-8.704 8.704-16.896 12.8-21.504 12.8-8.704 0-16.896-4.096-21.504-8.704L649.216 271.36c-12.8-12.8-16.896-34.304-4.096-47.104s34.304-16.896 47.104-4.096l64 51.2 132.096-144.896c12.8-12.8 34.304-12.8 47.104 0s12.8 34.304 0 47.104zM407.552 1.536H58.368C25.088 1.536 0 27.136 0 59.904V409.6c0 32.768 25.088 58.368 58.368 58.368h349.184c33.28-0.512 58.368-25.6 58.368-58.368V59.904C465.92 27.136 440.832 1.536 407.552 1.536z m-30.208 172.032l-153.6 166.4c-8.704 8.704-16.896 12.8-21.504 12.8-8.704 0-16.896-4.096-21.504-8.704L91.136 271.36c-12.8-12.8-16.896-34.304-4.096-47.104s34.304-16.896 47.104-4.096l64 51.2 132.096-144.896c12.8-12.8 34.304-12.8 47.104 0s12.8 34.304 0 47.104z" p-id="6299" fill="#2c2c2c"></path></svg>