<?xml version="1.0" standalone="no"?><!DOCTYPE svg PUBLIC "-//W3C//DTD SVG 1.1//EN" "http://www.w3.org/Graphics/SVG/1.1/DTD/svg11.dtd"><svg t="1747018658552" class="icon" viewBox="0 0 1024 1024" version="1.1" xmlns="http://www.w3.org/2000/svg" p-id="20178" xmlns:xlink="http://www.w3.org/1999/xlink" width="200" height="200"><path d="M917.504 849.92H106.496C50.688 849.92 5.12 804.352 5.12 748.544V140.288C5.12 84.48 50.688 38.912 106.496 38.912h811.008c55.808 0 101.376 45.568 101.376 101.376v608.256c0 55.808-45.568 101.376-101.376 101.376z m33.792-709.632c0-18.432-15.36-33.792-33.792-33.792H106.496c-18.432 0-33.792 15.36-33.792 33.792v608.256c0 18.432 15.36 33.792 33.792 33.792h811.008c18.432 0 33.792-15.36 33.792-33.792V140.288z m-304.64 416.768l101.376-112.64-101.376-112.64 50.688-56.32 152.064 168.448-152.064 168.448-50.688-55.296z m-320 55.808L174.592 444.416l152.064-168.448 50.688 56.32-101.376 112.64 101.376 112.64-50.688 55.296zM849.92 985.088H174.08v-67.584h675.84v67.584z" p-id="20179"></path></svg>